# xmcd CD database file
#
# Track frame offsets:
#	150
#	14715
#	34041
#	56606
#	72578
#	83969
#	96888
#	108898
#	134341
#	149357
#	162700
#	180500
#	196411
#	219215
#
# Disc length: 3160 seconds
#
# Revision: 0
# Processed by: cddbd v1.5.1PL2 Copyright (c) Steve Scherf et al.
# Submitted via: CDex 1.60beta1-cs1
#
DISCID=cc0c560e
DTITLE=Chuck Brown and Eva Cassidy - The Other Side
DYEAR=1900
DGENRE=Jazz
TTITLE0=Let the good times roll
TTITLE1=Fever
TTITLE2=You don't know me
TTITLE3=I could have told you so
TTITLE4=Gee baby, ain't I good to you
TTITLE5=I'll go crazy
TTITLE6=You don't know what love is
TTITLE7=Drown in my own tears
TTITLE8=God bless the child
TTITLE9=Red top
TTITLE10=Dark end of the street
TTITLE11=The shadow of your smile
TTITLE12=Over the rainbow
TTITLE13=You've changed
EXTD=
EXTT0=
EXTT1=
EXTT2=
EXTT3=
EXTT4=
EXTT5=
EXTT6=
EXTT7=
EXTT8=
EXTT9=
EXTT10=
EXTT11=
EXTT12=
EXTT13=
PLAYORDER=
